<svg width="109" height="109" xmlns="http://www.w3.org/2000/svg" xmlns:xlink="http://www.w3.org/1999/xlink" overflow="hidden"><defs><clipPath id="clip0"><rect x="278" y="241" width="109" height="109"/></clipPath></defs><g clip-path="url(#clip0)" transform="translate(-278 -241)"><path d="M329.083 308.111C321.791 306.245 317.42 298.924 319.319 291.76 321.218 284.596 328.67 280.301 335.962 282.167 341.98 283.707 346.177 289.051 346.167 295.161L353 295.161C353.012 284.038 343.843 275.011 332.521 275 321.199 274.989 312.012 283.997 312 295.12 311.99 304.957 319.212 313.361 329.083 315Z" fill="#404040" fill-rule="evenodd"/><path d="M375.715 287.188 367.971 294.075 363.21 289.257 371.29 282.064 363.378 268.221 351.845 272.157C349.143 269.881 346.083 268.081 342.793 266.83L340.412 254.786 324.588 254.786 322.208 266.83C318.891 268.046 315.814 269.85 313.122 272.157L301.623 268.221 293.711 282.064 302.83 290.173C302.209 293.685 302.209 297.281 302.83 300.793L293.711 308.936 301.623 322.779 313.156 318.843C315.857 321.118 318.917 322.919 322.208 324.17L324.588 336.214 329.147 336.214 329.147 343 324.588 343C321.391 342.996 318.641 340.711 318.017 337.538L316.307 328.988C314.79 328.239 313.322 327.388 311.915 326.443L303.768 329.225C303.076 329.453 302.351 329.568 301.623 329.564 299.225 329.581 297.005 328.283 295.823 326.171L287.911 312.329C286.297 309.523 286.873 305.953 289.285 303.812L295.722 298.112C295.655 297.23 295.621 296.382 295.621 295.5 295.621 294.618 295.689 293.77 295.756 292.921L289.285 287.188C286.873 285.047 286.297 281.477 287.911 278.671L295.823 264.828C297.005 262.717 299.225 261.419 301.623 261.436 302.351 261.432 303.076 261.547 303.768 261.775L311.882 264.557C313.3 263.611 314.778 262.761 316.307 262.012L318.017 253.462C318.641 250.29 321.391 248.003 324.588 248L340.412 248C343.609 248.003 346.359 250.29 346.983 253.462L348.693 262.012C350.211 262.761 351.678 263.612 353.085 264.557L361.232 261.775C361.925 261.547 362.649 261.432 363.378 261.436 365.776 261.419 367.995 262.717 369.178 264.828L377.09 278.671C378.704 281.477 378.128 285.047 375.715 287.188Z" fill="#404040" fill-rule="evenodd"/><path d="M358.375 319.625 358.375 303 353.625 303 353.625 319.625 337 319.625 337 324.375 353.625 324.375 353.625 341 358.375 341 358.375 324.375 375 324.375 375 319.625Z" fill="#404040" fill-rule="evenodd"/></g></svg>