<svg width="109" height="108" xmlns="http://www.w3.org/2000/svg" xmlns:xlink="http://www.w3.org/1999/xlink" overflow="hidden"><defs><clipPath id="clip0"><rect x="278" y="405" width="109" height="108"/></clipPath></defs><g clip-path="url(#clip0)" transform="translate(-278 -405)"><path d="M339 442 366 442 366 449 339 449Z" fill="#404040" fill-rule="evenodd"/><path d="M299 469 326 469 326 476 299 476Z" fill="#404040" fill-rule="evenodd"/><path d="M312.5 459C305.044 459 299 452.956 299 445.5 299 438.044 305.044 432 312.5 432 319.956 432 326 438.044 326 445.5 325.991 452.952 319.952 458.991 312.5 459ZM312.5 438.75C308.772 438.75 305.75 441.772 305.75 445.5 305.75 449.228 308.772 452.25 312.5 452.25 316.228 452.25 319.25 449.228 319.25 445.5 319.246 441.774 316.226 438.754 312.5 438.75Z" fill="#404040" fill-rule="evenodd"/><path d="M352.5 486C345.044 486 339 479.956 339 472.5 339 465.044 345.044 459 352.5 459 359.956 459 366 465.044 366 472.5 365.992 479.952 359.952 485.992 352.5 486ZM352.5 465.75C348.772 465.75 345.75 468.772 345.75 472.5 345.75 476.228 348.772 479.25 352.5 479.25 356.228 479.25 359.25 476.228 359.25 472.5 359.247 468.773 356.227 465.753 352.5 465.75Z" fill="#404040" fill-rule="evenodd"/><path d="M373.214 506 291.786 506C288.04 505.996 285.004 502.992 285 499.286L285 418.714C285.004 415.008 288.04 412.004 291.786 412L373.214 412C376.96 412.004 379.996 415.008 380 418.714L380 499.286C379.996 502.992 376.96 505.996 373.214 506ZM291.786 418.714 291.786 499.286 373.214 499.286 373.214 418.714Z" fill="#404040" fill-rule="evenodd"/></g></svg>