<svg width="109" height="109" xmlns="http://www.w3.org/2000/svg" xmlns:xlink="http://www.w3.org/1999/xlink" overflow="hidden"><defs><clipPath id="clip0"><rect x="278" y="74" width="109" height="109"/></clipPath></defs><g clip-path="url(#clip0)" transform="translate(-278 -74)"><path d="M332.5 87.7144C341.77 87.7144 349.286 95.2294 349.286 104.5 349.286 113.77 341.77 121.286 332.5 121.286 323.23 121.286 315.714 113.77 315.714 104.5 315.714 95.2294 323.23 87.7144 332.5 87.7144M332.5 81.0001C319.521 81.0001 309 91.5212 309 104.5 309 117.479 319.521 128 332.5 128 345.479 128 356 117.479 356 104.5 356 91.5212 345.479 81.0001 332.5 81.0001Z" fill="#404040" fill-rule="evenodd"/><path d="M366 176 359.3 176 359.3 158.917C359.3 149.482 351.801 141.833 342.55 141.833L322.45 141.833C313.199 141.833 305.7 149.482 305.7 158.917L305.7 176 299 176 299 158.917C299 145.708 309.499 135 322.45 135L342.55 135C355.501 135 366 145.708 366 158.917Z" fill="#404040" fill-rule="evenodd"/></g></svg>