<svg width="150" height="150" xmlns="http://www.w3.org/2000/svg" xmlns:xlink="http://www.w3.org/1999/xlink" overflow="hidden"><defs><clipPath id="clip0"><rect x="57" y="1377" width="150" height="150"/></clipPath></defs><g clip-path="url(#clip0)" transform="translate(-57 -1377)"><path d="M188 1465.8 126.024 1465.8 138.165 1453.63 131.529 1447 108 1470.5 131.529 1494 138.165 1487.37 126.024 1475.2 188 1475.2 188 1465.8Z" fill="#FFFFFF" fill-rule="evenodd"/><path d="M169 1442.57 169 1423.71C169.007 1422.46 168.522 1421.26 167.652 1420.37L135.102 1387.37C134.224 1386.48 133.036 1385.99 131.8 1386L85.3 1386C80.1637 1386 76 1390.22 76 1395.43L76 1508.57C76 1513.78 80.1637 1518 85.3 1518L159.7 1518C164.836 1518 169 1513.78 169 1508.57L169 1499.14 159.7 1499.14 159.7 1508.57 85.3 1508.57 85.3 1395.43 122.5 1395.43 122.5 1423.71C122.5 1428.92 126.664 1433.14 131.8 1433.14L159.7 1433.14 159.7 1442.57ZM131.8 1423.71 131.8 1397.36 157.794 1423.71Z" fill="#FFFFFF" fill-rule="evenodd"/></g></svg>