<svg width="61" height="61" xmlns="http://www.w3.org/2000/svg" xmlns:xlink="http://www.w3.org/1999/xlink" overflow="hidden"><defs><clipPath id="clip0"><rect x="503" y="81" width="61" height="61"/></clipPath></defs><g clip-path="url(#clip0)" transform="translate(-503 -81)"><path d="M533.5 138C548.135 138 560 126.135 560 111.5 560 96.8641 548.135 84.9995 533.5 84.9995 518.864 84.9995 507 96.8641 507 111.5 507 126.135 518.864 138 533.5 138ZM533.5 88.7854C546.045 88.7854 556.214 98.9549 556.214 111.5 556.214 124.044 546.045 134.214 533.5 134.214 520.955 134.214 510.786 124.044 510.786 111.5 510.786 98.9549 520.955 88.7854 533.5 88.7854Z" fill="#FFFFFF" fill-rule="evenodd"/><path d="M535 127 531 127 531 106 535 106Z" fill="#FFFFFF" fill-rule="evenodd"/><path d="M533 100C534.657 100 536 98.6567 536 96.9997 536 95.3428 534.657 93.9998 533 93.9998 531.343 93.9998 530 95.3428 530 96.9997 530 98.6567 531.343 100 533 100Z" fill="#FFFFFF" fill-rule="evenodd"/></g></svg>