<svg width="208" height="191" xmlns="http://www.w3.org/2000/svg" xmlns:xlink="http://www.w3.org/1999/xlink" overflow="hidden"><defs><filter id="fx0" x="-10%" y="-10%" width="120%" height="120%" filterUnits="userSpaceOnUse" primitiveUnits="userSpaceOnUse"><feComponentTransfer color-interpolation-filters="sRGB"><feFuncR type="discrete" tableValues="0 0"/><feFuncG type="discrete" tableValues="0 0"/><feFuncB type="discrete" tableValues="0 0"/><feFuncA type="linear" slope="0.25098" intercept="0"/></feComponentTransfer><feGaussianBlur stdDeviation="7.63889 7.63889"/></filter><filter id="fx1" x="-10%" y="-10%" width="120%" height="120%" filterUnits="userSpaceOnUse" primitiveUnits="userSpaceOnUse"><feComponentTransfer color-interpolation-filters="sRGB"><feFuncR type="discrete" tableValues="0 0"/><feFuncG type="discrete" tableValues="0 0"/><feFuncB type="discrete" tableValues="0 0"/><feFuncA type="linear" slope="0.2" intercept="0"/></feComponentTransfer><feGaussianBlur stdDeviation="4.58333 4.58333"/></filter><filter id="fx2" x="-10%" y="-10%" width="120%" height="120%" filterUnits="userSpaceOnUse" primitiveUnits="userSpaceOnUse"><feComponentTransfer color-interpolation-filters="sRGB"><feFuncR type="discrete" tableValues="0 0"/><feFuncG type="discrete" tableValues="0 0"/><feFuncB type="discrete" tableValues="0 0"/><feFuncA type="linear" slope="0.101961" intercept="0"/></feComponentTransfer><feGaussianBlur stdDeviation="7.63889 7.63889"/></filter><clipPath id="clip3"><rect x="46" y="663" width="208" height="191"/></clipPath><clipPath id="clip4"><rect x="-23" y="-23" width="95" height="83"/></clipPath><clipPath id="clip5"><rect x="0" y="0" width="171" height="126"/></clipPath><radialGradient cx="170411" cy="108065" r="201787" fx="0" fy="0" gradientUnits="userSpaceOnUse" spreadMethod="pad" id="fill6" gradientTransform="matrix(0.000360892 0 0 0.000360892 69.0001 752)"><stop offset="0" stop-color="#FCB603"/><stop offset="0.54" stop-color="#C48700"/><stop offset="1" stop-color="#C48700"/></radialGradient><clipPath id="clip7"><rect x="-14" y="-14" width="77" height="77"/></clipPath><clipPath id="clip8"><rect x="0" y="0" width="175" height="175"/></clipPath><clipPath id="clip9"><rect x="-23" y="-23" width="102" height="102"/></clipPath><clipPath id="clip10"><rect x="0" y="0" width="193" height="193"/></clipPath><radialGradient cx="0" cy="0" r="448208" gradientUnits="userSpaceOnUse" spreadMethod="pad" id="fill11" gradientTransform="matrix(0.000255189 0.000255189 -0.000255189 0.000255189 135.925 680.852)"><stop offset="0" stop-color="#FFE84D"/><stop offset="0.54" stop-color="#FCB603"/><stop offset="1" stop-color="#FCB603"/></radialGradient></defs><g clip-path="url(#clip3)" transform="translate(-46 -663)"><g clip-path="url(#clip4)" filter="url(#fx0)" transform="translate(45 728)"><g clip-path="url(#clip5)"><path d="M24.0001 37.0004C24.0001 29.8206 29.8205 24.0001 37.0004 24.0001L134 24.0001C141.18 24.0001 147 29.8206 147 37.0004L147 88.9999C147 96.1797 141.18 102 134 102L37.0004 102C29.8205 102 24.0001 96.1797 24.0001 88.9999Z" fill="#FF0000" fill-rule="evenodd"/></g></g><path d="M69.0001 765C69.0001 757.821 74.8205 752 82.0004 752L179 752C186.18 752 192 757.821 192 765L192 817C192 824.18 186.18 830 179 830L82.0004 830C74.8205 830 69.0001 824.18 69.0001 817Z" fill="url(#fill6)" fill-rule="evenodd"/><path d="M113.481 773.728C122.993 764.217 138.414 764.217 147.925 773.728 157.436 783.24 157.436 798.66 147.925 808.172 138.414 817.683 122.993 817.683 113.481 808.172 103.97 798.66 103.97 783.24 113.481 773.728Z" fill="#FFFFFF" fill-rule="evenodd"/><g clip-path="url(#clip7)" filter="url(#fx1)" transform="translate(71 671)"><g clip-path="url(#clip8)"><path d="M55.6775 19.0996C60.7845 13.9925 69.0648 13.9925 74.1718 19.0996L155.698 100.625C160.805 105.733 160.805 114.013 155.698 119.12L118.71 156.107C113.603 161.215 105.323 161.215 100.216 156.107L18.6898 74.5816C13.5827 69.4745 13.5827 61.1943 18.6898 56.0872Z" fill="#FF0000" fill-rule="evenodd"/><path d="M68.5424 68.9551C78.8418 58.6556 95.5406 58.6556 105.84 68.9551 116.14 79.2546 116.14 95.9533 105.84 106.253 95.5406 116.552 78.8418 116.552 68.5424 106.253 58.2429 95.9533 58.2429 79.2546 68.5424 68.9551Z" fill="#FFFFFF" fill-rule="evenodd"/></g></g><g clip-path="url(#clip9)" filter="url(#fx2)" transform="translate(62 662)"><g clip-path="url(#clip10)"><path d="M64.6775 28.0996C69.7845 22.9925 78.0648 22.9925 83.1718 28.0996L164.698 109.625C169.805 114.733 169.805 123.013 164.698 128.12L127.71 165.107C122.603 170.215 114.323 170.215 109.216 165.107L27.6898 83.5816C22.5827 78.4745 22.5827 70.1943 27.6898 65.0872Z" fill="#FF0000" fill-rule="evenodd"/></g></g><path d="M126.677 690.1C131.785 684.992 140.065 684.992 145.172 690.1L226.698 771.625C231.805 776.733 231.805 785.013 226.698 790.12L189.71 827.107C184.603 832.215 176.323 832.215 171.216 827.107L89.6898 745.582C84.5827 740.475 84.5827 732.194 89.6898 727.087Z" fill="url(#fill11)" fill-rule="evenodd"/><path d="M139.542 739.955C149.842 729.656 166.541 729.656 176.84 739.955 187.14 750.255 187.14 766.953 176.84 777.253 166.541 787.552 149.842 787.552 139.542 777.253 129.243 766.953 129.243 750.255 139.542 739.955Z" fill="#FFFFFF" fill-rule="evenodd"/></g></svg>