<svg width="150" height="149" xmlns="http://www.w3.org/2000/svg" xmlns:xlink="http://www.w3.org/1999/xlink" overflow="hidden"><defs><clipPath id="clip0"><rect x="55" y="1572" width="150" height="149"/></clipPath></defs><g clip-path="url(#clip0)" transform="translate(-55 -1572)"><path d="M195 1683.8 176.6 1683.8 176.6 1665 167.4 1665 167.4 1683.8 149 1683.8 149 1693.2 167.4 1693.2 167.4 1712 176.6 1712 176.6 1693.2 195 1693.2 195 1683.8Z" fill="#FFFFFF" fill-rule="evenodd"/><path d="M129.999 1702.64 92.3997 1702.64 92.3997 1590.36 129.999 1590.36 129.999 1618.43C130.014 1623.59 134.214 1627.77 139.399 1627.79L167.599 1627.79 167.599 1646.5 176.999 1646.5 176.999 1618.43C177.033 1617.19 176.517 1615.99 175.589 1615.15L142.689 1582.41C141.851 1581.48 140.649 1580.97 139.399 1581L92.3997 1581C87.2147 1581.02 83.0146 1585.2 82.9998 1590.36L82.9998 1702.64C83.0146 1707.8 87.2147 1711.99 92.3997 1712L129.999 1712ZM139.399 1592.23 165.719 1618.43 139.399 1618.43Z" fill="#FFFFFF" fill-rule="evenodd"/></g></svg>