<svg width="61" height="61" xmlns="http://www.w3.org/2000/svg" xmlns:xlink="http://www.w3.org/1999/xlink" overflow="hidden"><defs><clipPath id="clip0"><rect x="503" y="171" width="61" height="61"/></clipPath></defs><g clip-path="url(#clip0)" transform="translate(-503 -171)"><path d="M533.5 175C518.865 175 507 186.864 507 201.5 507 216.136 518.865 228 533.5 228 548.136 228 560 216.136 560 201.5 560 186.864 548.136 175 533.5 175ZM533.5 224.214C520.955 224.214 510.786 214.045 510.786 201.5 510.786 188.955 520.955 178.786 533.5 178.786 546.045 178.786 556.214 188.955 556.214 201.5 556.214 214.045 546.045 224.214 533.5 224.214Z" fill="#FFFFFF" fill-rule="evenodd"/><path d="M531 186 535 186 535 207 531 207Z" fill="#FFFFFF" fill-rule="evenodd"/><path d="M533 213C531.343 213 530 214.343 530 216 530 217.657 531.343 219 533 219 534.657 219 536 217.657 536 216 536 214.343 534.657 213 533 213Z" fill="#FFFFFF" fill-rule="evenodd"/></g></svg>